<svg width="16" height="16" viewBox="0 0 16 16" fill="none" xmlns="http://www.w3.org/2000/svg">
<path d="M16.0029 14.7025L11.5216 10.6541C12.5034 9.5 13.0421 8.03709 13.042 6.52525C13.0512 5.05437 12.5574 3.62408 11.6417 2.46914C10.726 1.3142 9.44268 0.503218 8.00253 0.16931C6.56238 -0.164598 5.0509 -0.00159487 3.71616 0.631561C2.38141 1.26472 1.30272 2.33041 0.657114 3.65372C0.0115066 4.97704 -0.162665 6.47937 0.163212 7.91411C0.48909 9.34886 1.29564 10.6308 2.45049 11.5495C3.60533 12.4682 5.03987 12.9691 6.51863 12.97C7.99738 12.9709 9.43252 12.4717 10.5885 11.5544L14.6905 16L16.0029 14.7025ZM0.907923 6.52763C0.900949 5.42237 1.22406 4.33994 1.83633 3.41758C2.44861 2.49521 3.32246 1.77447 4.34706 1.34673C5.37166 0.918982 6.50085 0.803497 7.59151 1.01492C8.68218 1.22635 9.68517 1.75516 10.4733 2.53431C11.2614 3.31346 11.7992 4.30785 12.0185 5.3914C12.2378 6.47496 12.1286 7.59887 11.7049 8.62065C11.2812 9.64242 10.562 10.516 9.63853 11.1307C8.71503 11.7454 7.62879 12.0735 6.5176 12.0733C5.03511 12.0755 3.61227 11.493 2.56077 10.4535C1.50927 9.41396 0.91491 8.00224 0.907923 6.52763Z" fill="#BBBBBB"/>
</svg>
